<svg width="100" height="100" xmlns="http://www.w3.org/2000/svg" version="1.0">
   <path d="m89.93,49.87c0,6.29 -0.04,12.58 0,18.88a6.56,6.56 0 0 1 -3.22,6.01c-2.81,1.76 -5.68,3.43 -8.57,5.04c-1.95,1.1 -3.79,0.65 -5.1,-1.21c-3.07,-4.43 -6.09,-8.92 -9.15,-13.39l-10.94,-16.04c-0.25,-0.36 -0.5,-0.72 -0.74,-1.09c-2.22,-3.57 -1.95,-5.01 0.79,-8.16c3.54,-4.02 6.91,-8.19 10.42,-12.26c2.31,-2.71 4.64,-5.39 7.04,-8.01c1.57,-1.73 3.4,-1.95 5.41,-0.78c3.55,2.03 7.16,4 10.62,6.16c2.15,1.33 3.54,3.21 3.5,6c-0.13,6.27 -0.07,12.56 -0.07,18.85l0,0z" fill="#f8c33c"/>
   <path d="m27.27,50.11l0,28.38c0,0.96 0.17,2.02 -0.95,2.56s-1.95,0.16 -2.9,-0.38c-3.01,-1.73 -5.97,-3.51 -9.04,-5.07c-3.31,-1.69 -4.33,-4.64 -4.35,-8.02c-0.06,-11.72 0,-23.43 -0.04,-35.11c0,-4.13 1.78,-6.87 5.49,-8.68a88.22,88.22 0 0 0 7.71,-4.44a3.25,3.25 0 0 1 3.05,-0.46c1.11,0.46 1.02,1.54 1.02,2.52l0,28.71l0,0z" fill="#23c7b4"/>
   <path d="m35.14,72.86c0,-3.07 0.12,-6.15 0,-9.22a11.2,11.2 0 0 1 3.18,-8.62c0.87,-0.92 1.67,-1.91 2.49,-2.86c1.87,-2.17 3.91,-2.09 5.52,0.3c2.97,4.39 5.9,8.83 8.85,13.23c3.58,5.34 7.16,10.66 10.77,16.01c1.72,2.6 1.3,4.56 -1.35,6.12q-5.47,3.25 -11.03,6.33a6.91,6.91 0 0 1 -7.12,-0.07q-4.01,-2.26 -7.96,-4.63a6.41,6.41 0 0 1 -3.37,-5.9c0.05,-3.57 0.01,-7.13 0.01,-10.69l0" fill="#fa6b67"/>
   <path d="m35.15,30.45l0,-13.74a6.59,6.59 0 0 1 3.35,-6.09c2.88,-1.72 5.78,-3.42 8.76,-4.99a5.95,5.95 0 0 1 5.64,-0.04c3.33,1.78 6.61,3.71 9.87,5.68c2.11,1.3 2.39,3.11 0.77,5.01c-4.21,4.98 -8.46,9.92 -12.73,14.87s-8.51,9.89 -12.76,14.85c-0.54,0.65 -1.15,1.13 -2,0.88c-0.96,-0.29 -0.89,-1.17 -0.89,-1.95l0,-14.47l0" fill="#5f77a8"/>
</svg>