<svg width="200" height="80" xmlns="http://www.w3.org/2000/svg" version="1.0">
  <g opacity="0.8" filter="url(#blur)" id="svg_34">
    <svg x="5" y="6" width="70" height="70" viewBox="0 0 100 100" id="svg_8" xmlns="http://www.w3.org/2000/svg">
      <path d="m89.93,49.87c0,6.29 -0.04,12.58 0,18.88a6.56,6.56 0 0 1 -3.22,6.01c-2.81,1.76 -5.68,3.43 -8.57,5.04c-1.95,1.1 -3.79,0.65 -5.1,-1.21c-3.07,-4.43 -6.09,-8.92 -9.15,-13.39l-10.94,-16.04c-0.25,-0.36 -0.5,-0.72 -0.74,-1.09c-2.22,-3.57 -1.95,-5.01 0.79,-8.16c3.54,-4.02 6.91,-8.19 10.42,-12.26c2.31,-2.71 4.64,-5.39 7.04,-8.01c1.57,-1.73 3.4,-1.95 5.41,-0.78c3.55,2.03 7.16,4 10.62,6.16c2.15,1.33 3.54,3.21 3.5,6c-0.13,6.27 -0.07,12.56 -0.07,18.85l0,0z" fill="#f8c33c" />
      <path d="m27.27,50.11l0,28.38c0,0.96 0.17,2.02 -0.95,2.56s-1.95,0.16 -2.9,-0.38c-3.01,-1.73 -5.97,-3.51 -9.04,-5.07c-3.31,-1.69 -4.33,-4.64 -4.35,-8.02c-0.06,-11.72 0,-23.43 -0.04,-35.11c0,-4.13 1.78,-6.87 5.49,-8.68a88.22,88.22 0 0 0 7.71,-4.44a3.25,3.25 0 0 1 3.05,-0.46c1.11,0.46 1.02,1.54 1.02,2.52l0,28.71l0,0z" fill="#23c7b4" />
      <path d="m35.14,72.86c0,-3.07 0.12,-6.15 0,-9.22a11.2,11.2 0 0 1 3.18,-8.62c0.87,-0.92 1.67,-1.91 2.49,-2.86c1.87,-2.17 3.91,-2.09 5.52,0.3c2.97,4.39 5.9,8.83 8.85,13.23c3.58,5.34 7.16,10.66 10.77,16.01c1.72,2.6 1.3,4.56 -1.35,6.12q-5.47,3.25 -11.03,6.33a6.91,6.91 0 0 1 -7.12,-0.07q-4.01,-2.26 -7.96,-4.63a6.41,6.41 0 0 1 -3.37,-5.9c0.05,-3.57 0.01,-7.13 0.01,-10.69l0" fill="#fa6b67" />
      <path d="m35.15,30.45l0,-13.74a6.59,6.59 0 0 1 3.35,-6.09c2.88,-1.72 5.78,-3.42 8.76,-4.99a5.95,5.95 0 0 1 5.64,-0.04c3.33,1.78 6.61,3.71 9.87,5.68c2.11,1.3 2.39,3.11 0.77,5.01c-4.21,4.98 -8.46,9.92 -12.73,14.87s-8.51,9.89 -12.76,14.85c-0.54,0.65 -1.15,1.13 -2,0.88c-0.96,-0.29 -0.89,-1.17 -0.89,-1.95l0,-14.47l0" fill="#5f77a8" />
    </svg>
  </g>
  <path d="m50,62q-2.22,0 -5.55,-3.54q-3.33,-3.54 -6.72,-8.61q-3.39,-5.07 -5.73,-9.57l0,0l-5.46,17.64q-0.6,1.92 -2.28,2.46q-1.68,0.54 -4.2,0.54l0,0q1.08,-2.34 2.13,-5.16q1.05,-2.82 3.15,-9.06l0,0q5.7,-16.68 9.42,-26.88l0,0q0.06,-0.18 0.39,-1.02q0.33,-0.84 0.33,-1.56l0,0q0,-1.14 -1.2,-1.14l0,0q-1.74,0 -3.42,1.77q-1.68,1.77 -2.7,4.26q-1.02,2.49 -1.02,4.29l0,0q0,1.38 0.6,2.76l0,0q-2.46,0 -3.63,-1.05q-1.17,-1.05 -1.17,-2.85l0,0q0,-2.58 2.1,-5.31q2.1,-2.73 5.1,-4.56q3,-1.83 5.46,-1.83l0,0q3.3,0 3.3,3.48l0,0q0,1.14 -0.42,2.4l0,0l-4.44,14.4q0.72,-0.42 4.14,-3.06l0,0q5.1,-3.96 9.51,-8.49q4.41,-4.53 7.29,-8.91l0,0q0.66,0.6 0.93,1.53q0.27,0.93 0.27,1.71l0,0q0,4.08 -6.75,9.75q-6.75,5.67 -15.39,11.19l0,0q3.18,4.92 5.43,7.98q2.25,3.06 5.67,6.51q3.42,3.45 8.58,7.41l0,0q-0.54,1.02 -1.62,1.77q-1.08,0.75 -2.1,0.75l0,0zm9.06,-2.4q-2.1,0 -3.51,-1.38q-1.41,-1.38 -1.41,-3.9l0,0q0,-3.48 2.55,-7.8q2.55,-4.32 6.51,-7.32q3.96,-3 7.92,-3l0,0q2.64,0 4.41,1.35q1.77,1.35 1.77,3.45l0,0q0,2.76 -3.42,2.88l0,0q2.16,0.66 2.16,1.8l0,0q0,0.42 -0.42,1.26q-0.42,0.84 -0.96,1.74l0,0q-0.96,1.56 -1.5,2.73q-0.54,1.17 -0.54,2.19l0,0q0,0.9 0.45,1.53q0.45,0.63 1.35,0.63l0,0q1.68,0 4.29,-2.34q2.61,-2.34 5.07,-7.02l0,0l1.14,1.14q-2.22,4.98 -5.52,8.01q-3.3,3.03 -6.66,3.03l0,0q-2.4,0 -3.69,-1.59q-1.29,-1.59 -1.29,-3.63l0,0q-2.7,3.24 -4.62,4.74q-1.92,1.5 -4.08,1.5l0,0zm1.26,-3.06q2.1,0 4.89,-3.03q2.79,-3.03 6.33,-7.89l0,0l1.2,-1.62q0.18,-0.3 0.48,-0.3l0,0l0.24,0.06q0.3,-0.96 0.3,-2.22l0,0q0,-3.12 -2.52,-3.12l0,0q-2.64,0 -5.52,2.82q-2.88,2.82 -4.83,6.72q-1.95,3.9 -1.95,6.66l0,0q0,1.02 0.33,1.47q0.33,0.45 1.05,0.45l0,0zm42.24,1.44q-2.28,0 -3.54,-1.14q-1.26,-1.14 -1.26,-3l0,0q0,-0.78 0.27,-1.8q0.27,-1.02 0.57,-2.04l0,0q0.84,-2.76 0.84,-4.08l0,0q0,-1.2 -0.6,-1.77q-0.6,-0.57 -1.5,-0.57l0,0q-3.18,0 -6.42,3.99q-3.24,3.99 -6.96,10.11l0,0q-2.58,0 -3.9,-1.74l0,0l0.54,-1.5q3.54,-8.58 3.54,-12.72l0,0q0.48,-0.54 1.38,-0.99q0.9,-0.45 1.74,-0.45l0,0q1.02,0 1.56,0.48q0.54,0.48 0.54,1.32l0,0q0,1.62 -1.02,5.34l0,0q2.7,-3.6 5.61,-5.88q2.91,-2.28 5.73,-2.28l0,0q2.4,0 3.72,1.65q1.32,1.65 1.32,3.93l0,0q0,1.32 -0.33,2.52q-0.33,1.2 -0.99,2.7l0,0q-1.02,2.52 -1.02,3.78l0,0q0,0.9 0.42,1.32q0.42,0.42 1.02,0.42l0,0q1.98,0 4.29,-2.73q2.31,-2.73 4.17,-6.45l0,0l1.02,0.84q-2.16,4.98 -4.77,7.86q-2.61,2.88 -5.97,2.88l0,0zm14.46,3.18q-3.36,0 -5.16,-2.1q-1.8,-2.1 -1.8,-5.88l0,0q0,-5.64 3.6,-15.09q3.6,-9.45 8.22,-16.8q4.62,-7.35 7.26,-7.35l0,0q1.14,0 1.77,1.26q0.63,1.26 0.69,2.88l0,0q0,2.88 -1.98,7.53q-1.98,4.65 -5.19,8.91q-3.21,4.26 -6.75,6.3l0,0q-0.84,1.56 -1.77,5.13q-0.93,3.57 -0.93,6.87l0,0q0,2.64 0.75,4.23q0.75,1.59 2.37,1.59l0,0q1.56,0 3.36,-1.41q1.8,-1.41 2.94,-3.51l0,0q-2.16,-1.2 -3.33,-3.33q-1.17,-2.13 -1.17,-4.59l0,0q0,-2.88 1.56,-4.71q1.56,-1.83 3.9,-1.83l0,0q2.04,0 3.24,1.53q1.2,1.53 1.2,4.47l0,0q0,3.66 -1.8,7.56l0,0l1.08,0.06q2.76,0 4.56,-1.92q1.8,-1.92 3.18,-4.74l0,0l0.9,1.26q-1.62,3.72 -3.81,5.49q-2.19,1.77 -5.61,1.77l0,0q-0.84,0 -1.26,-0.06l0,0q-1.86,2.94 -4.38,4.71q-2.52,1.77 -5.64,1.77l0,0zm1.8,-24.12q2.46,-2.22 4.74,-5.79q2.28,-3.57 3.72,-6.9q1.44,-3.33 1.5,-4.77l0,0q-0.78,0.3 -2.7,3q-1.92,2.7 -3.96,6.63q-2.04,3.93 -3.3,7.83l0,0zm6.6,14.7q1.08,-2.46 1.08,-5.1l0,0q0,-2.04 -0.48,-3.12q-0.48,-1.08 -1.26,-1.08l0,0q-0.78,0 -1.35,1.08q-0.57,1.08 -0.57,2.58l0,0q0,1.5 0.63,3.09q0.63,1.59 1.95,2.55l0,0zm13.2,7.86q-2.1,0 -3.51,-1.38q-1.41,-1.38 -1.41,-3.9l0,0q0,-3.48 2.55,-7.8q2.55,-4.32 6.51,-7.32q3.96,-3 7.92,-3l0,0q2.64,0 4.41,1.35q1.77,1.35 1.77,3.45l0,0q0,2.76 -3.42,2.88l0,0q2.16,0.66 2.16,1.8l0,0q0,0.42 -0.42,1.26q-0.42,0.84 -0.96,1.74l0,0q-0.96,1.56 -1.5,2.73q-0.54,1.17 -0.54,2.19l0,0q0,0.9 0.45,1.53q0.45,0.63 1.35,0.63l0,0q1.68,0 4.29,-2.34q2.61,-2.34 5.07,-7.02l0,0l1.14,1.14q-2.22,4.98 -5.52,8.01q-3.3,3.03 -6.66,3.03l0,0q-2.4,0 -3.69,-1.59q-1.29,-1.59 -1.29,-3.63l0,0q-2.7,3.24 -4.62,4.74q-1.92,1.5 -4.08,1.5l0,0zm1.26,-3.06q2.1,0 4.89,-3.03q2.79,-3.03 6.33,-7.89l0,0l1.2,-1.62q0.18,-0.3 0.48,-0.3l0,0l0.24,0.06q0.3,-0.96 0.3,-2.22l0,0q0,-3.12 -2.52,-3.12l0,0q-2.64,0 -5.52,2.82q-2.88,2.82 -4.83,6.72q-1.95,3.9 -1.95,6.66l0,0q0,1.02 0.33,1.47q0.33,0.45 1.05,0.45l0,0zm42.24,1.44q-2.28,0 -3.54,-1.14q-1.26,-1.14 -1.26,-3l0,0q0,-0.78 0.27,-1.8q0.27,-1.02 0.57,-2.04l0,0q0.84,-2.76 0.84,-4.08l0,0q0,-1.2 -0.6,-1.77q-0.6,-0.57 -1.5,-0.57l0,0q-3.18,0 -6.42,3.99q-3.24,3.99 -6.96,10.11l0,0q-2.58,0 -3.9,-1.74l0,0l0.54,-1.5q3.54,-8.58 3.54,-12.72l0,0q0.48,-0.54 1.38,-0.99q0.9,-0.45 1.74,-0.45l0,0q1.02,0 1.56,0.48q0.54,0.48 0.54,1.32l0,0q0,1.62 -1.02,5.34l0,0q2.7,-3.6 5.61,-5.88q2.91,-2.28 5.73,-2.28l0,0q2.4,0 3.72,1.65q1.32,1.65 1.32,3.93l0,0q0,1.32 -0.33,2.52q-0.33,1.2 -0.99,2.7l0,0q-1.02,2.52 -1.02,3.78l0,0q0,0.9 0.42,1.32q0.42,0.42 1.02,0.42l0,0q1.98,0 4.29,-2.73q2.31,-2.73 4.17,-6.45l0,0l1.02,0.84q-2.16,4.98 -4.77,7.86q-2.61,2.88 -5.97,2.88l0,0z" />
  <path d="m57,75q-0.74,0 -1.11,-0.24q-0.37,-0.25 -0.38,-0.79l0,0q0,-0.12 0.13,-0.12l0,0q0.08,0 0.33,0.06q0.26,0.05 0.85,0.05l0,0q1.37,0 2.48,-0.38q1.11,-0.38 1.74,-0.99q0.64,-0.61 0.64,-1.29l0,0q0,-0.84 -0.88,-1.14q-0.87,-0.29 -2.23,-0.29l0,0l-0.89,0.01q-0.18,0.61 -0.31,1.13q-0.14,0.51 -0.25,0.9l0,0q-0.35,1.31 -0.48,1.76l0,0q-0.36,0 -0.62,-0.19q-0.27,-0.19 -0.27,-0.47l0,0q0,-0.21 0.12,-0.55l0,0l0.05,-0.14l0.16,-0.48q1.33,-4.16 2.28,-5.99l0,0q-0.6,0.13 -1.24,0.48l0,0q-0.06,0.02 -0.17,0.08q-0.11,0.05 -0.15,0.05l0,0q-0.12,0 -0.3,-0.17q-0.18,-0.18 -0.18,-0.3l0,0q0.82,-0.33 1.48,-0.5q0.65,-0.17 1.54,-0.17l0,0q1.19,0 2.1,0.41q0.91,0.41 0.91,1.55l0,0q0,0.92 -0.72,1.47q-0.73,0.54 -1.79,0.79l0,0q1.36,0.18 1.97,0.74q0.61,0.55 0.61,1.2l0,0q0,1.09 -0.9,1.89q-0.91,0.81 -2.19,1.22q-1.27,0.41 -2.33,0.41l0,0zm0.8,-5.58q1.56,-0.06 2.6,-0.59q1.04,-0.53 1.04,-1.65l0,0q0,-1.44 -2.26,-1.44l0,0q-0.67,1.3 -1.38,3.68l0,0zm5.97,4.92q-0.53,0 -0.81,-0.31q-0.27,-0.32 -0.27,-0.83l0,0q0,-0.49 0.21,-1.03q0.21,-0.54 0.54,-0.9q0.34,-0.37 0.7,-0.37l0,0q0.11,0 0.36,0.1l0,0q0.07,-0.56 0.4,-0.92q0.32,-0.36 0.85,-0.36l0,0q0.95,0 0.95,0.98l0,0q0,0.45 -0.2,0.98q-0.2,0.53 -0.55,1.04l0,0q0.22,0.08 0.35,0.08l0,0q0.58,0 0.97,-0.39q0.4,-0.38 0.64,-0.91q0.24,-0.53 0.47,-1.26l0,0q-0.11,-0.13 -0.11,-0.3l0,0q0,-0.24 0.1,-0.44q0.1,-0.21 0.24,-0.33q0.14,-0.12 0.23,-0.12l0,0q0.27,0 0.27,0.37l0,0q0,0.05 -0.07,0.23q-0.06,0.17 -0.06,0.21l0,0q0,0.08 0.09,0.15q0.09,0.07 0.29,0.22l0,0q0.42,0.26 0.67,0.53q0.24,0.27 0.24,0.7l0,0q0,0.27 -0.09,0.54q-0.09,0.27 -0.24,0.64l0,0q-0.24,0.53 -0.24,0.76l0,0q0,0.16 0.07,0.22q0.08,0.06 0.23,0.06l0,0q0.34,0 0.76,-0.28q0.41,-0.29 0.76,-0.71q0.35,-0.41 0.5,-0.77l0,0l0.24,0.17q-0.4,0.87 -1.11,1.53q-0.7,0.66 -1.45,0.66l0,0q-0.45,0 -0.73,-0.23q-0.28,-0.23 -0.28,-0.62l0,0q0,-0.24 0.08,-0.51q0.09,-0.27 0.25,-0.65l0,0q0.15,-0.36 0.22,-0.57q0.07,-0.21 0.07,-0.39l0,0q0,-0.49 -0.63,-0.83l0,0q-0.29,0.85 -0.55,1.4q-0.26,0.54 -0.73,0.96q-0.46,0.41 -1.17,0.41l0,0q-0.3,0 -0.58,-0.11l0,0q-0.44,0.54 -0.93,0.87q-0.5,0.33 -0.95,0.33l0,0zm1.81,-1.92q0.28,-0.4 0.43,-0.84q0.15,-0.43 0.15,-0.81l0,0q0,-0.27 -0.1,-0.41q-0.1,-0.14 -0.22,-0.14l0,0q-0.25,0 -0.47,0.31q-0.22,0.31 -0.22,0.75l0,0q0,0.28 0.12,0.59q0.13,0.31 0.31,0.55l0,0zm-1.57,1.32q0.23,0 0.55,-0.24q0.32,-0.25 0.66,-0.63l0,0q-0.71,-0.58 -0.73,-1.78l0,0q-0.27,0.3 -0.57,0.97q-0.3,0.66 -0.3,1.05l0,0q0,0.31 0.11,0.47q0.1,0.16 0.28,0.16l0,0zm11.81,0.46q-0.46,0 -0.71,-0.23q-0.25,-0.23 -0.25,-0.6l0,0q0,-0.15 0.05,-0.36q0.05,-0.2 0.11,-0.41l0,0q0.17,-0.55 0.17,-0.81l0,0q0,-0.24 -0.12,-0.36q-0.12,-0.11 -0.3,-0.11l0,0q-0.63,0 -1.28,0.8q-0.65,0.8 -1.39,2.02l0,0q-0.52,0 -0.78,-0.35l0,0l0.1,-0.3q0.71,-1.71 0.71,-2.54l0,0q0.1,-0.11 0.28,-0.2q0.18,-0.09 0.35,-0.09l0,0q0.2,0 0.31,0.1q0.11,0.09 0.11,0.26l0,0q0,0.32 -0.21,1.07l0,0q0.54,-0.72 1.12,-1.18q0.59,-0.45 1.15,-0.45l0,0q0.48,0 0.74,0.33q0.27,0.33 0.27,0.78l0,0q0,0.27 -0.07,0.51q-0.06,0.24 -0.2,0.54l0,0q-0.2,0.5 -0.2,0.75l0,0q0,0.18 0.08,0.27q0.09,0.08 0.21,0.08l0,0q0.39,0 0.86,-0.55q0.46,-0.54 0.83,-1.29l0,0l0.2,0.17q-0.43,1 -0.95,1.57q-0.52,0.58 -1.19,0.58l0,0zm7,0.8q-0.6,-0.03 -0.81,-0.28q-0.22,-0.24 -0.22,-0.69l0,0q0,-0.62 0.31,-1.63q0.32,-1.01 0.81,-2.17l0,0q-1.17,0.11 -1.47,0.15l0,0q0.09,-0.94 1.77,-0.99l0,0q0.73,-2.02 1.31,-3.19l0,0q-0.2,-0.03 -0.44,-0.03l0,0q-1.04,0 -1.44,0.32q-0.39,0.32 -0.39,0.99l0,0q0,0.29 0.05,0.53q0.06,0.24 0.19,0.55l0,0q-1.05,-0.17 -1.05,-1.04l0,0q0,-0.62 0.46,-1.1q0.46,-0.49 1.25,-0.76q0.8,-0.28 1.77,-0.28l0,0q0.36,0 0.78,0.04q0.42,0.03 0.54,0.04l0,0q0.71,0.09 1.14,0.09l0,0q0.56,0 1.22,-0.18l0,0q-0.56,0.61 -0.92,0.84q-0.37,0.23 -0.74,0.23l0,0q-0.23,0 -0.76,-0.09l0,0q-0.73,-0.09 -0.97,-0.11l0,0q-0.21,0.52 -0.51,1.39q-0.29,0.87 -0.57,1.77l0,0q0.29,0.02 0.52,0.05q0.23,0.02 0.41,0.03l0,0q0.84,0.1 1.32,0.11l0,0q-0.2,0.27 -0.41,0.37q-0.22,0.11 -0.64,0.15q-0.42,0.03 -1.43,0.06l0,0q-0.2,0.73 -0.49,1.69l0,0q-0.32,1.12 -0.45,1.85q-0.14,0.73 -0.14,1.29l0,0zm4.13,-0.66q-0.53,0 -0.8,-0.31q-0.28,-0.32 -0.28,-0.83l0,0q0,-0.49 0.21,-1.03q0.21,-0.54 0.55,-0.9q0.33,-0.37 0.69,-0.37l0,0q0.11,0 0.36,0.1l0,0q0.08,-0.56 0.4,-0.92q0.32,-0.36 0.85,-0.36l0,0q0.95,0 0.95,0.98l0,0q0,0.45 -0.2,0.98q-0.2,0.53 -0.54,1.04l0,0q0.21,0.08 0.34,0.08l0,0q0.58,0 0.98,-0.39q0.39,-0.38 0.63,-0.91q0.24,-0.53 0.47,-1.26l0,0q-0.11,-0.13 -0.11,-0.3l0,0q0,-0.24 0.1,-0.44q0.11,-0.21 0.24,-0.33q0.14,-0.12 0.24,-0.12l0,0q0.26,0 0.26,0.37l0,0q0,0.05 -0.06,0.23q-0.07,0.17 -0.07,0.21l0,0q0,0.08 0.09,0.15q0.09,0.07 0.29,0.22l0,0q0.42,0.26 0.67,0.53q0.25,0.27 0.25,0.7l0,0q0,0.27 -0.09,0.54q-0.09,0.27 -0.25,0.64l0,0q-0.24,0.53 -0.24,0.76l0,0q0,0.16 0.08,0.22q0.08,0.06 0.22,0.06l0,0q0.35,0 0.76,-0.28q0.42,-0.29 0.76,-0.71q0.35,-0.41 0.51,-0.77l0,0l0.24,0.17q-0.41,0.87 -1.11,1.53q-0.7,0.66 -1.46,0.66l0,0q-0.44,0 -0.73,-0.23q-0.28,-0.23 -0.28,-0.62l0,0q0,-0.24 0.09,-0.51q0.08,-0.27 0.25,-0.65l0,0q0.14,-0.36 0.21,-0.57q0.08,-0.21 0.08,-0.39l0,0q0,-0.49 -0.64,-0.83l0,0q-0.29,0.85 -0.55,1.4q-0.25,0.54 -0.72,0.96q-0.47,0.41 -1.18,0.41l0,0q-0.3,0 -0.57,-0.11l0,0q-0.45,0.54 -0.94,0.87q-0.49,0.33 -0.95,0.33l0,0zm1.81,-1.92q0.28,-0.4 0.43,-0.84q0.15,-0.43 0.15,-0.81l0,0q0,-0.27 -0.1,-0.41q-0.09,-0.14 -0.21,-0.14l0,0q-0.25,0 -0.48,0.31q-0.22,0.31 -0.22,0.75l0,0q0,0.28 0.13,0.59q0.12,0.31 0.3,0.55l0,0zm-1.57,1.32q0.23,0 0.55,-0.24q0.33,-0.25 0.66,-0.63l0,0q-0.7,-0.58 -0.73,-1.78l0,0q-0.26,0.3 -0.56,0.97q-0.3,0.66 -0.3,1.05l0,0q0,0.31 0.1,0.47q0.1,0.16 0.28,0.16l0,0zm14.32,2.46q-0.77,0 -1.25,-0.31q-0.48,-0.31 -0.48,-0.87l0,0q0,-0.39 0.24,-0.68q0.24,-0.3 0.67,-0.39l0,0q-0.13,0.6 -0.13,0.81l0,0q0,0.5 0.27,0.76q0.27,0.26 0.82,0.26l0,0q0.87,0 1.38,-0.61q0.52,-0.61 0.75,-1.43q0.24,-0.81 0.45,-2.02l0,0q0.17,-0.92 0.25,-1.2l0,0q-0.5,0.81 -1.11,1.26q-0.61,0.44 -1.39,0.44l0,0q-0.76,0 -1.12,-0.42q-0.36,-0.42 -0.36,-1.12l0,0q0,-0.39 0.1,-0.85q0.09,-0.47 0.3,-1.23l0,0q0.18,-0.69 0.27,-1.13q0.1,-0.43 0.1,-0.78l0,0q0,-0.87 -0.65,-0.87l0,0q-0.41,0 -0.68,0.31q-0.28,0.31 -0.42,0.76q-0.14,0.45 -0.14,0.89l0,0q0,0.18 0.03,0.31q0.03,0.13 0.12,0.36l0,0q-0.55,0 -0.81,-0.25q-0.26,-0.25 -0.26,-0.67l0,0q0,-0.49 0.32,-1.01q0.33,-0.52 0.89,-0.86q0.55,-0.34 1.21,-0.34l0,0q0.69,0 1.05,0.37q0.36,0.37 0.36,0.95l0,0q0,0.25 -0.08,0.61q-0.08,0.36 -0.26,1.01l0,0q-0.21,0.79 -0.32,1.27q-0.11,0.48 -0.11,0.91l0,0q0,1.13 0.85,1.13l0,0q0.77,0 1.43,-0.82q0.66,-0.82 1.08,-2.06l0,0q0.07,-0.19 0.16,-0.48q0.08,-0.29 0.12,-0.43l0,0q0.37,-1.21 0.63,-1.84q0.27,-0.62 0.6,-0.62l0,0q0.15,0 0.38,0.13q0.23,0.12 0.44,0.33l0,0q-0.45,0.68 -0.7,1.27q-0.25,0.6 -0.5,1.51q-0.25,0.91 -0.78,3.08l0,0q-0.33,1.31 -0.73,2.28q-0.4,0.96 -1.13,1.62q-0.73,0.66 -1.86,0.66l0,0zm5.57,-1.86q-0.5,0 -0.72,-0.32q-0.22,-0.32 -0.22,-0.8l0,0q0,-0.51 0.21,-1.05q0.21,-0.54 0.55,-0.9q0.33,-0.36 0.68,-0.36l0,0q0.14,0 0.37,0.1l0,0q0.07,-0.55 0.39,-0.91q0.32,-0.36 0.9,-0.36l0,0q0.48,0 0.7,0.27q0.23,0.27 0.23,0.7l0,0q0,0.42 -0.22,0.96q-0.22,0.54 -0.57,1.08l0,0q0.14,0.07 0.34,0.07l0,0q0.33,0 0.72,-0.22q0.38,-0.22 0.58,-0.68l0,0l0.22,0.16q-0.25,0.57 -0.68,0.87q-0.42,0.3 -0.88,0.3l0,0q-0.28,0 -0.6,-0.11l0,0q-0.44,0.53 -0.97,0.87q-0.53,0.33 -1.03,0.33l0,0zm1.89,-1.84q0.3,-0.45 0.5,-0.93q0.2,-0.48 0.2,-0.86l0,0q0,-0.53 -0.34,-0.53l0,0q-0.15,0 -0.32,0.16q-0.17,0.15 -0.28,0.41q-0.11,0.26 -0.11,0.57l0,0q0,0.28 0.1,0.63q0.1,0.35 0.25,0.55l0,0zm-1.46,1.23q0.21,0 0.53,-0.24q0.31,-0.24 0.62,-0.61l0,0q-0.68,-0.6 -0.72,-1.76l0,0q-0.14,0.07 -0.35,0.44q-0.2,0.37 -0.35,0.83q-0.14,0.45 -0.14,0.79l0,0q0,0.55 0.41,0.55l0,0zm4.15,0.59q-0.4,0 -0.66,-0.37q-0.26,-0.37 -0.26,-0.88l0,0q0,-0.43 0.19,-1.08q0.19,-0.65 0.45,-1.13q0.26,-0.48 0.45,-0.48l0,0q0.08,0 0.26,0.09q0.17,0.09 0.3,0.23l0,0q-0.25,0.37 -0.52,1.06q-0.27,0.7 -0.27,1.2l0,0q0,0.23 0.07,0.48q0.06,0.24 0.29,0.24l0,0q0.44,0 1.06,-0.99q0.62,-0.99 1.06,-2.01l0,0q0.72,0.12 0.72,0.41l0,0q0,0.03 -0.14,0.35l0,0q-0.25,0.59 -0.43,1.09q-0.18,0.51 -0.18,0.88l0,0q0,0.42 0.32,0.42l0,0q0.25,0 0.61,-0.24q0.35,-0.23 0.72,-0.67q0.38,-0.44 0.65,-1.01l0,0l0.18,0.14q-0.26,0.65 -0.68,1.17q-0.42,0.51 -0.91,0.81q-0.48,0.29 -0.93,0.29l0,0q-0.53,0 -0.68,-0.37q-0.15,-0.36 -0.15,-0.97l0,0q-0.4,0.62 -0.76,0.98q-0.36,0.36 -0.76,0.36l0,0zm6.6,-0.05q-0.44,0 -0.72,-0.23q-0.28,-0.24 -0.28,-0.63l0,0q0,-0.23 0.09,-0.5q0.09,-0.27 0.27,-0.65l0,0q0.16,-0.34 0.24,-0.57q0.09,-0.24 0.09,-0.42l0,0q0,-0.45 -0.6,-0.77l0,0q-0.24,0.6 -0.56,1.22q-0.32,0.61 -0.57,1.03l0,0l-0.18,-0.35q0.55,-0.98 0.97,-2.17l0,0q-0.12,-0.12 -0.12,-0.33l0,0q0,-0.31 0.19,-0.58q0.2,-0.28 0.38,-0.28l0,0q0.12,0 0.19,0.14q0.08,0.15 0.08,0.24l0,0q0,0.05 -0.05,0.21q-0.06,0.17 -0.08,0.24l0,0q0.01,0.08 0.1,0.16q0.08,0.08 0.31,0.22l0,0q0.42,0.28 0.65,0.54q0.24,0.25 0.24,0.69l0,0q0,0.26 -0.09,0.52q-0.09,0.27 -0.27,0.64l0,0q-0.27,0.53 -0.27,0.76l0,0q0,0.27 0.3,0.27l0,0q0.36,0 0.79,-0.29q0.42,-0.28 0.78,-0.7q0.35,-0.41 0.52,-0.77l0,0l0.29,0.21q-0.24,0.54 -0.67,1.04q-0.44,0.49 -0.97,0.8q-0.53,0.31 -1.05,0.31l0,0zm6.66,0.73q-0.37,0 -0.68,-0.19q-0.32,-0.2 -0.32,-0.49l0,0q0,-0.2 0.16,-0.67l0,0q0.92,-2.83 1.49,-4.42q0.56,-1.58 1.38,-3.39l0,0q-0.61,0.14 -1.26,0.48l0,0q-0.29,0.14 -0.35,0.14l0,0q-0.11,0 -0.28,-0.17q-0.18,-0.18 -0.18,-0.3l0,0q1.61,-0.67 2.82,-0.67l0,0q0.8,0 1.57,0.28q0.77,0.27 1.28,0.81q0.5,0.53 0.5,1.26l0,0q0,1.15 -0.92,1.78q-0.93,0.62 -2.02,0.83q-1.1,0.21 -1.86,0.21l0,0l-0.07,0l-0.67,2.41q-0.25,0.96 -0.59,2.1l0,0zm1.37,-4.88q0.96,-0.06 1.82,-0.37q0.85,-0.31 1.4,-0.89q0.55,-0.58 0.55,-1.38l0,0q0,-0.83 -0.64,-1.27q-0.64,-0.45 -1.55,-0.47l0,0q-0.72,1.39 -1.58,4.38l0,0zm5.91,4.15q-0.44,0 -0.72,-0.23q-0.27,-0.24 -0.27,-0.63l0,0q0,-0.23 0.09,-0.5q0.09,-0.27 0.27,-0.65l0,0q0.15,-0.34 0.24,-0.57q0.08,-0.24 0.08,-0.42l0,0q0,-0.45 -0.6,-0.77l0,0q-0.24,0.6 -0.56,1.22q-0.31,0.61 -0.57,1.03l0,0l-0.18,-0.35q0.56,-0.98 0.98,-2.17l0,0q-0.12,-0.12 -0.12,-0.33l0,0q0,-0.31 0.19,-0.58q0.19,-0.28 0.37,-0.28l0,0q0.12,0 0.2,0.14q0.08,0.15 0.08,0.24l0,0q0,0.05 -0.06,0.21q-0.05,0.17 -0.08,0.24l0,0q0.02,0.08 0.1,0.16q0.08,0.08 0.31,0.22l0,0q0.42,0.28 0.66,0.54q0.23,0.25 0.23,0.69l0,0q0,0.26 -0.09,0.52q-0.09,0.27 -0.27,0.64l0,0q-0.26,0.53 -0.26,0.76l0,0q0,0.27 0.3,0.27l0,0q0.36,0 0.78,-0.29q0.43,-0.28 0.78,-0.7q0.36,-0.41 0.52,-0.77l0,0l0.29,0.21q-0.24,0.54 -0.67,1.04q-0.43,0.49 -0.97,0.8q-0.53,0.31 -1.05,0.31l0,0zm2.93,0.07q-0.49,0 -0.71,-0.32q-0.22,-0.32 -0.22,-0.8l0,0q0,-0.51 0.21,-1.05q0.21,-0.54 0.54,-0.9q0.34,-0.36 0.69,-0.36l0,0q0.14,0 0.37,0.1l0,0q0.07,-0.55 0.39,-0.91q0.32,-0.36 0.89,-0.36l0,0q0.48,0 0.71,0.27q0.23,0.27 0.23,0.7l0,0q0,0.42 -0.22,0.96q-0.23,0.54 -0.57,1.08l0,0q0.14,0.07 0.33,0.07l0,0q0.34,0 0.72,-0.22q0.39,-0.22 0.59,-0.68l0,0l0.22,0.16q-0.26,0.57 -0.68,0.87q-0.43,0.3 -0.88,0.3l0,0q-0.28,0 -0.6,-0.11l0,0q-0.45,0.53 -0.98,0.87q-0.52,0.33 -1.03,0.33l0,0zm1.9,-1.84q0.3,-0.45 0.5,-0.93q0.19,-0.48 0.19,-0.86l0,0q0,-0.53 -0.33,-0.53l0,0q-0.16,0 -0.33,0.16q-0.16,0.15 -0.27,0.41q-0.11,0.26 -0.11,0.57l0,0q0,0.28 0.1,0.63q0.09,0.35 0.25,0.55l0,0zm-1.47,1.23q0.22,0 0.53,-0.24q0.31,-0.24 0.63,-0.61l0,0q-0.69,-0.6 -0.72,-1.76l0,0q-0.15,0.07 -0.35,0.44q-0.21,0.37 -0.35,0.83q-0.14,0.45 -0.14,0.79l0,0q0,0.55 0.4,0.55l0,0zm4.91,-4.86q-0.24,0 -0.42,-0.12q-0.18,-0.12 -0.18,-0.33l0,0q0,-0.29 0.32,-0.51q0.32,-0.21 0.67,-0.21l0,0q0.21,0 0.35,0.1q0.14,0.11 0.14,0.32l0,0q0,0.3 -0.27,0.52q-0.26,0.23 -0.61,0.23l0,0zm-3.27,8.45q-0.35,0 -0.56,-0.19q-0.2,-0.19 -0.2,-0.52l0,0q0,-0.59 0.67,-1.22q0.67,-0.63 1.69,-1.03l0,0q0.44,-1.07 0.69,-2.44l0,0q-0.17,0.26 -0.19,0.3l0,0l-0.23,0.38l-0.21,-0.32q0.17,-0.31 0.33,-0.69q0.15,-0.38 0.19,-0.49l0,0q0.26,-0.69 0.46,-1.02q0.19,-0.32 0.45,-0.32l0,0q0.16,0 0.27,0.13q0.1,0.12 0.1,0.31l0,0q0,0.33 -0.24,1.46q-0.25,1.12 -0.62,2.23l0,0q0.65,-0.36 1.1,-0.76q0.45,-0.39 0.9,-1.16l0,0l0.22,0.14q-0.3,0.6 -0.63,1q-0.33,0.39 -0.64,0.62q-0.31,0.22 -0.76,0.47l0,0l-0.38,0.23q-0.47,1.25 -1.09,2.07q-0.62,0.82 -1.32,0.82l0,0zm-0.14,-0.58q0.24,0 0.65,-0.46q0.41,-0.47 0.82,-1.3l0,0q-0.78,0.4 -1.2,0.81q-0.41,0.41 -0.41,0.75l0,0q0,0.2 0.14,0.2l0,0zm5.86,-2.25q-0.76,0 -1.18,-0.41q-0.42,-0.41 -0.42,-1.04l0,0q0,-0.7 0.47,-1.51q0.47,-0.81 1.2,-1.36q0.73,-0.54 1.44,-0.54l0,0q0.37,0 0.63,0.18q0.25,0.19 0.25,0.62l0,0q0,0.58 -0.45,1.09q-0.44,0.51 -1.14,0.83q-0.7,0.33 -1.44,0.41l0,0q-0.02,0.12 -0.02,0.28l0,0q0,0.31 0.17,0.62q0.18,0.31 0.75,0.31l0,0q0.74,0 1.5,-0.59q0.76,-0.6 1.23,-1.48l0,0l0.24,0.19q-0.48,1.08 -1.38,1.74q-0.89,0.66 -1.85,0.66l0,0zm-0.5,-2.17q0.43,-0.05 0.96,-0.35q0.54,-0.3 0.91,-0.74q0.37,-0.44 0.37,-0.86l0,0q0,-0.13 -0.05,-0.18q-0.05,-0.05 -0.15,-0.05l0,0q-0.35,0 -0.77,0.33q-0.41,0.33 -0.76,0.84q-0.35,0.5 -0.51,1.01l0,0zm4.56,2.31q-0.65,0 -1.04,-0.4q-0.39,-0.4 -0.39,-1.18l0,0q0,-0.77 0.39,-1.5q0.39,-0.73 1.01,-1.19q0.63,-0.46 1.26,-0.46l0,0q0.48,0 0.72,0.24q0.23,0.24 0.23,0.6l0,0q0,0.36 -0.17,0.67q-0.18,0.31 -0.43,0.31l0,0q-0.23,0 -0.37,-0.23l0,0q0.14,-0.1 0.26,-0.34q0.12,-0.24 0.12,-0.56l0,0q0,-0.21 -0.23,-0.21l0,0q-0.38,0 -0.82,0.46q-0.45,0.46 -0.75,1.1q-0.3,0.65 -0.3,1.18l0,0q0,0.38 0.19,0.64q0.2,0.26 0.66,0.26l0,0q0.46,0 0.96,-0.26q0.5,-0.27 0.93,-0.75q0.43,-0.49 0.68,-1.13l0,0l0.24,0.22q-0.29,0.72 -0.8,1.3q-0.51,0.57 -1.13,0.9q-0.62,0.33 -1.22,0.33l0,0zm3.73,-0.12q-0.55,0 -0.87,-0.32q-0.31,-0.31 -0.31,-0.94l0,0q0,-0.47 0.18,-1.19q0.18,-0.73 0.48,-1.54l0,0q-0.31,-0.06 -0.42,-0.11l0,0l0,-0.37q0.29,0.03 0.58,0.06l0,0q0.54,-1.36 1.16,-2.33q0.61,-0.97 1,-0.97l0,0q0.13,0 0.23,0.09q0.1,0.1 0.1,0.25l0,0q0,0.2 -0.16,0.52q-0.17,0.32 -0.56,0.98l0,0q-0.52,0.89 -0.82,1.49l0,0q1.38,0 2.19,-0.08l0,0l0,0.39q-1.41,0.15 -2.41,0.15l0,0q-0.62,1.47 -0.62,2.41l0,0q0,0.49 0.15,0.7q0.16,0.2 0.49,0.2l0,0q0.6,0 1.23,-0.55q0.63,-0.54 1.1,-1.48l0,0l0.17,0.12q-0.49,1.12 -1.27,1.82q-0.78,0.7 -1.62,0.7l0,0zm3.77,0.06q-0.84,0 -1.25,-0.48q-0.4,-0.49 -0.4,-1.16l0,0q0,-0.47 0.17,-0.66q0.17,-0.18 0.38,-0.28q0.21,-0.09 0.24,-0.13l0,0q0.77,-0.79 1.17,-1.64l0,0l0,-0.12q0,-0.45 0.15,-0.66q0.15,-0.22 0.39,-0.22l0,0q0.26,0 0.29,0.24l0,0q0,0.06 -0.03,0.18q-0.03,0.12 -0.03,0.25l0,0q0,0.23 0.07,0.48q0.07,0.25 0.23,0.69l0,0q0.19,0.52 0.29,0.91q0.1,0.38 0.1,0.78l0,0q0,0.2 -0.05,0.49l0,0q0.82,-0.2 1.42,-1.36l0,0l0.14,0.11q-0.24,0.69 -0.66,1.11q-0.43,0.42 -1,0.5l0,0q-0.2,0.48 -0.63,0.73q-0.43,0.24 -0.99,0.24l0,0zm0.78,-1.35q0.03,-0.11 0.03,-0.38l0,0q-0.01,-0.38 -0.08,-0.75q-0.07,-0.37 -0.22,-0.96l0,0l-0.11,-0.43q-0.58,1.02 -1.04,1.5l0,0q0.2,0.34 0.58,0.63q0.37,0.28 0.84,0.39l0,0zm-0.87,0.82q0.24,0 0.45,-0.12q0.21,-0.12 0.32,-0.34l0,0q-0.47,-0.1 -0.86,-0.37q-0.4,-0.27 -0.64,-0.58l0,0q-0.17,0.03 -0.17,0.32l0,0q0,0.43 0.24,0.76q0.24,0.33 0.66,0.33l0,0z" />
  <defs>
    <filter height="200%" width="200%" y="-50%" x="-50%" id="blur">
      <feGaussianBlur stdDeviation="5" in="SourceGraphic" />
    </filter>
  </defs>
</svg>